<svg width="100%" height="100%" viewBox="0 0 179 179" fill="none" xmlns="http://www.w3.org/2000/svg">
<g clip-path="url(#clip0_461_14)">
<path d="M21 49.77L89.885 10L158.769 49.77V129.311L89.885 169.082L21 129.311V49.77Z" stroke="#0091FF" stroke-width="20" stroke-miterlimit="10" stroke-linecap="round" stroke-linejoin="round"/>
<path d="M90.3 40.982V65.982" stroke="#0091FF" stroke-width="12" stroke-miterlimit="10" stroke-linecap="round" stroke-linejoin="round"/>
<path d="M104.215 48.826L89.912 40.569" stroke="#0091FF" stroke-width="12" stroke-miterlimit="10" stroke-linecap="round" stroke-linejoin="round"/>
<path d="M75.609 48.826L81.555 45.394L89.912 40.569L75.609 48.826Z" stroke="#0091FF" stroke-width="12" stroke-miterlimit="10" stroke-linecap="round" stroke-linejoin="round"/>
<path d="M61.683 122.308L47.381 114.05" stroke="#0091FF" stroke-width="12" stroke-miterlimit="10" stroke-linecap="round" stroke-linejoin="round"/>
<path d="M47.381 97.535V104.4V114.05V97.535Z" stroke="#0091FF" stroke-width="12" stroke-miterlimit="10" stroke-linecap="round" stroke-linejoin="round"/>
<path d="M69.3 100.982L48.3 113.982" stroke="#0091FF" stroke-width="12" stroke-miterlimit="10" stroke-linecap="round" stroke-linejoin="round"/>
<path d="M132.3 113.982L110.3 101.982" stroke="#0091FF" stroke-width="12" stroke-miterlimit="10" stroke-linecap="round" stroke-linejoin="round"/>
<path d="M69.72 77.899L89.883 66.258L110.045 77.899V101.18L89.883 112.821L69.72 101.18V77.899Z" stroke="#0091FF" stroke-width="12" stroke-miterlimit="10" stroke-linecap="round" stroke-linejoin="round"/>
<path d="M132.283 97.627V114.143" stroke="#0091FF" stroke-width="12" stroke-miterlimit="10" stroke-linecap="round" stroke-linejoin="round"/>
<path d="M117.981 122.4L123.926 118.968L132.283 114.143L117.981 122.4Z" stroke="#0091FF" stroke-width="12" stroke-miterlimit="10" stroke-linecap="round" stroke-linejoin="round"/>
</g>
<defs>
<clipPath id="clip0_461_14">
<rect width="179" height="179" fill="white"/>
</clipPath>
</defs>
</svg>
